<svg xmlns="http://www.w3.org/2000/svg" width="14.518" height="11.289" viewBox="0 0 14.518 11.289">
  <path id="Icon_awesome-home" data-name="Icon awesome-home" d="M7.065,5.182,2.419,9.009v4.13a.4.4,0,0,0,.4.4l2.824-.007a.4.4,0,0,0,.4-.4V10.72a.4.4,0,0,1,.4-.4H8.064a.4.4,0,0,1,.4.4v2.41a.4.4,0,0,0,.4.4l2.823.008a.4.4,0,0,0,.4-.4V9.006L7.451,5.182A.307.307,0,0,0,7.065,5.182Zm7.34,2.6L12.3,6.047V2.556a.3.3,0,0,0-.3-.3H10.584a.3.3,0,0,0-.3.3v1.83L8.026,2.529a1.21,1.21,0,0,0-1.537,0L.109,7.783a.3.3,0,0,0-.04.426l.643.781a.3.3,0,0,0,.426.041L7.065,4.149a.307.307,0,0,1,.386,0l5.928,4.883a.3.3,0,0,0,.426-.04l.643-.781a.3.3,0,0,0-.043-.427Z" transform="translate(0.001 -2.254)" fill="#fff"/>
</svg>
