<svg id="Group_37" data-name="Group 37" xmlns="http://www.w3.org/2000/svg" xmlns:xlink="http://www.w3.org/1999/xlink" width="110.921" height="79.833" viewBox="0 0 110.921 79.833">
  <defs>
    <clipPath id="clip-path">
      <rect id="Rectangle_305" data-name="Rectangle 305" width="110.921" height="79.833" fill="#faa92a"/>
    </clipPath>
  </defs>
  <g id="Group_35" data-name="Group 35" clip-path="url(#clip-path)">
    <path id="Path_73" data-name="Path 73" d="M110.9,52.521c-.025-.066-.053-.131-.082-.2a1.436,1.436,0,0,1-.116-.33c-1.352-8.852-6.07-15.244-14.021-19A34.1,34.1,0,0,0,91.53,31.2c-.751-.217-1.525-.441-2.288-.686A33.714,33.714,0,0,0,78.015,8.59,34.226,34.226,0,0,0,56.638.014a33.154,33.154,0,0,0-21.481,6.8A33.641,33.641,0,0,0,21.739,30.752a24.617,24.617,0,0,0-6.468,47.22,25.233,25.233,0,0,0,9.369,1.861,23.827,23.827,0,0,0,6.5-.912,24.5,24.5,0,0,0,15.338-12.43,33.819,33.819,0,0,0,18.008.016A25.042,25.042,0,0,0,75.416,77.223a24.287,24.287,0,0,0,15.446,2.169,24.753,24.753,0,0,0,19.163-17.579c.249-.9.44-1.822.625-2.716.086-.418.173-.835.265-1.252l.006-5.28ZM21.584,36.266c-.151.218-.618.336-1.468.551a18.929,18.929,0,0,0,1.931,37.167c7.9.888,14.176-2.063,18.636-8.772.115-.172.233-.343.365-.534l.1-.141,1.493.659C39.456,71.812,30.695,77.64,20.484,75.559a20.6,20.6,0,0,1-16.6-21.3c.559-11.153,9.409-18.63,17.7-19.476.094.817.14,1.272-.005,1.484M31.1,52.908a1.736,1.736,0,0,0-1.575,1.134A1.89,1.89,0,0,0,30,56.1c1.657,1.605,3.428,3.142,5.141,4.629l1.112.967a8.44,8.44,0,0,0,1.114.78c.1.063.2.126.3.19A15,15,0,0,1,20.523,69.8,15.177,15.177,0,0,1,9.6,52.99c.8-6.269,6.835-12.333,12.494-12.613q.287.877.567,1.752c.5,1.54,1.008,3.133,1.566,4.679a24.01,24.01,0,0,0,1.284,2.787l.233.454a1.941,1.941,0,0,0,3.642,0,2.262,2.262,0,0,0-.257-1.747,30.138,30.138,0,0,1-3.418-10.578A29.589,29.589,0,0,1,29.34,19.131,29.126,29.126,0,0,1,46.076,5.369,29.125,29.125,0,0,1,70.336,7.8a29.026,29.026,0,0,1,13.4,16A29.621,29.621,0,0,1,82.44,47.087c-.079.167-.164.331-.248.5-.111.215-.226.438-.328.666a1.93,1.93,0,0,0,.794,2.734,1.837,1.837,0,0,0,1.436.109,2.059,2.059,0,0,0,1.148-1.123c.751-1.6,1.617-3.492,2.341-5.441a29.9,29.9,0,0,0,.883-3c.1-.378.194-.757.3-1.133,5.522.1,11.583,6.036,12.549,12.361a15.184,15.184,0,0,1-10.54,16.96c-6.632,2.04-14.564-1.124-17.45-6.921q.689-.545,1.378-1.082c1.218-.953,2.476-1.937,3.674-2.953a25.515,25.515,0,0,0,2.3-2.317l.288-.316a1.957,1.957,0,0,0,.108-2.864c-.774-.741-1.837-.661-2.845.217-.62.54-1.239,1.1-1.839,1.646a45.9,45.9,0,0,1-4.853,4.015,27.7,27.7,0,0,1-14.4,4.658A29.255,29.255,0,0,1,38,58.2a32.308,32.308,0,0,1-3.116-2.7c-.627-.591-1.275-1.2-1.942-1.77a3.13,3.13,0,0,0-1.843-.832M69.605,64.631c.442.506.867,1.024,1.28,1.528a24.833,24.833,0,0,0,3.121,3.366c5.774,4.857,12.439,6,19.272,3.309,6.7-2.641,10.678-7.656,11.812-14.905A18.755,18.755,0,0,0,89.82,36.62a.781.781,0,0,1-.51-.217.635.635,0,0,1-.03-.462,6.909,6.909,0,0,0,.093-.984c0-.048,0-.1.007-.144A20.265,20.265,0,0,1,106.7,51.257a20.715,20.715,0,0,1-38.459,14Z" transform="translate(0 0)" fill="#faa92a"/>
    <path id="Path_74" data-name="Path 74" d="M127.888,76.514h.07a28.644,28.644,0,0,0,20.286-48.88,28.253,28.253,0,0,0-20.082-8.518A28.812,28.812,0,0,0,99.216,47.891a28.278,28.278,0,0,0,8.433,20.159,28.6,28.6,0,0,0,20.239,8.464M109.744,32.263A2.848,2.848,0,0,0,111.58,33.4h.009a1.933,1.933,0,0,0,1.349-.675A1.885,1.885,0,0,0,113.6,31.4a2.911,2.911,0,0,0-1.15-1.868,8.777,8.777,0,0,1-.6-.638,24.606,24.606,0,0,1,14.562-5.874c0,.109,0,.215,0,.32-.008.413-.014.8.015,1.192.1,1.27.78,2.013,1.878,2.039,1.154.033,1.9-.741,1.99-2.053.027-.368.021-.739.014-1.132,0-.1,0-.2,0-.3a24.815,24.815,0,0,1,14.264,6.288c-.146.178-.317.353-.5.535-.78.8-1.751,1.792-.351,3.254.929.971,1.856.508,3.517-.948a24.409,24.409,0,0,1,5.478,14.3l-.323,0c-.408,0-.793-.006-1.177.006-1.415.046-2.242.735-2.268,1.89-.028,1.211.806,1.938,2.287,1.992.37.013.743.01,1.106.007l.208,0a24.657,24.657,0,0,1-25,22.231c-15.393-.285-23.927-13.249-24.261-22.631a6.934,6.934,0,0,1,.859-.045,2.747,2.747,0,0,0,2.022-.531,1.932,1.932,0,0,0,.454-1.443c-.029-1.882-1.441-1.9-2.574-1.91-.3,0-.6-.007-.886-.039a24.389,24.389,0,0,1,5.917-14.408,7.457,7.457,0,0,1,.67.633" transform="translate(-72.436 -13.957)" fill="#faa92a"/>
    <path id="Path_75" data-name="Path 75" d="M313.753,200.741c2.159,1.22,4.44,2.463,6.974,3.8a1.9,1.9,0,0,0,.825.194.983.983,0,0,0,.561-.146c.52-.364,1.148-.919,1.192-1.5a2.29,2.29,0,0,0-.9-1.844c-1.764-1.064-3.607-2.056-5.389-3.015l-1.279-.69a2.563,2.563,0,0,0-.647-.21c-.135-.032-.292-.069-.477-.121l-.143-.04-.11.1c-.1.09-.224.183-.354.281a2.908,2.908,0,0,0-.928.954,1.66,1.66,0,0,0,.676,2.235" transform="translate(-228.434 -143.951)" fill="#faa92a"/>
    <path id="Path_76" data-name="Path 76" d="M71.081,197.841a4.493,4.493,0,0,0-1.013.691c-.087.072-.174.143-.262.212l-.74.582c-1.141.9-2.32,1.823-3.46,2.762a1.662,1.662,0,0,0-.6,2.233,3.827,3.827,0,0,0,.928.951c.132.106.26.21.374.315l.118.11.153-.053c.169-.058.316-.1.445-.135a1.792,1.792,0,0,0,.65-.27l.425-.331c1.692-1.317,3.442-2.679,5.118-4.077a1.7,1.7,0,0,0,.2-2.406,1.774,1.774,0,0,0-2.337-.585" transform="translate(-47.295 -144.291)" fill="#faa92a"/>
    <path id="Path_77" data-name="Path 77" d="M160.172,169.75q3.007.011,6.014,0l2.6,0c.9,0,1.789,0,2.683,0,.861,0,1.734,0,2.613,0,1.141,0,2.29,0,3.428-.012a4.568,4.568,0,0,0,4.84-4.861q.008-.542,0-1.085c-.046-2.944-1.827-4.792-4.648-4.822-5.721-.062-11.736-.063-17.878,0-2.832.028-4.625,1.865-4.678,4.793-.006.316,0,.631,0,.947v.029c.023,3.169,1.856,4.993,5.026,5m18.3-5.495c0,.057,0,.114,0,.171,0,1.445,0,1.445-1.422,1.445l-2.68,0c-4.592,0-9.341.007-14.01-.024a2.607,2.607,0,0,1-1.182-.322A8.655,8.655,0,0,1,159.27,163a2.653,2.653,0,0,1,.8-.144c2.221-.018,4.48-.016,6.665-.014h2.056q1.21,0,2.421,0c2.031.006,4.131.011,6.2-.019a1.154,1.154,0,0,1,.886.237,1.03,1.03,0,0,1,.172.8,3.821,3.821,0,0,0,0,.388" transform="translate(-113.268 -116.034)" fill="#faa92a"/>
    <path id="Path_78" data-name="Path 78" d="M192.151,111.036h.049a4.886,4.886,0,0,0,4.713-3.836c.1-.667.391-.869,1-1.069,3.29-1.093,6.666-2.249,9.644-3.269.082-.028.169-.054.259-.081a1.745,1.745,0,0,0,1.019-.565,3.457,3.457,0,0,0,.622-1.939,1.53,1.53,0,0,0-1.772-1.342,5.155,5.155,0,0,0-1.318.279l-.7.238c-2.931.991-5.962,2.015-8.928,3.066a1.591,1.591,0,0,1-1.58-.244,6.937,6.937,0,0,0-3.294-1.073h-.011a4.47,4.47,0,0,0-3.209,1.436,4.921,4.921,0,0,0-1.407,3.552,5,5,0,0,0,4.921,4.845m.052-6c.6,0,.936.313,1.039.979-.06.772-.4,1.111-1.079,1.112a1.05,1.05,0,0,1-.772-.264,1.11,1.11,0,0,1-.264-.818.92.92,0,0,1,1.011-1.009h.064" transform="translate(-136.692 -72.228)" fill="#faa92a"/>
  </g>
</svg>
