<svg xmlns="http://www.w3.org/2000/svg" width="30" height="30.001" viewBox="0 0 30 30.001">
  <path id="Union_6" data-name="Union 6" d="M-3646.062-289.939l-5.511-5.512A13.4,13.4,0,0,1-3660-292.5a13.414,13.414,0,0,1-9.545-3.955A13.407,13.407,0,0,1-3673.5-306a13.409,13.409,0,0,1,3.953-9.546A13.418,13.418,0,0,1-3660-319.5a13.42,13.42,0,0,1,9.548,3.955A13.412,13.412,0,0,1-3646.5-306a13.4,13.4,0,0,1-2.95,8.427l5.51,5.512a1.5,1.5,0,0,1,0,2.121,1.491,1.491,0,0,1-1.06.44A1.491,1.491,0,0,1-3646.062-289.939ZM-3670.5-306a10.512,10.512,0,0,0,10.5,10.5,10.469,10.469,0,0,0,7.307-2.966,1.306,1.306,0,0,1,.108-.12c.039-.039.079-.075.121-.109A10.462,10.462,0,0,0-3649.5-306a10.512,10.512,0,0,0-10.5-10.5A10.512,10.512,0,0,0-3670.5-306Zm9,4.5v-3h-3a1.5,1.5,0,0,1-1.5-1.5,1.5,1.5,0,0,1,1.5-1.5h3v-3a1.5,1.5,0,0,1,1.5-1.5,1.5,1.5,0,0,1,1.5,1.5v3h3a1.5,1.5,0,0,1,1.5,1.5,1.5,1.5,0,0,1-1.5,1.5h-3v3a1.5,1.5,0,0,1-1.5,1.5A1.5,1.5,0,0,1-3661.5-301.5Z" transform="translate(3673.5 319.5)" fill="#faa92a"/>
</svg>
