<svg id="Group_39" data-name="Group 39" xmlns="http://www.w3.org/2000/svg" xmlns:xlink="http://www.w3.org/1999/xlink" width="81.125" height="81.172" viewBox="0 0 81.125 81.172">
  <defs>
    <clipPath id="clip-path">
      <rect id="Rectangle_306" data-name="Rectangle 306" width="81.124" height="81.172" fill="#faa92a"/>
    </clipPath>
  </defs>
  <g id="Group_38" data-name="Group 38" clip-path="url(#clip-path)">
    <path id="Path_79" data-name="Path 79" d="M65.755,174.243l0-2.42q.018-16.341.029-32.682a6.214,6.214,0,0,0-.1-1.412,4.687,4.687,0,0,0-4.818-3.748h0q-21.323.01-42.645.026l-13.57.009H4.624a4.673,4.673,0,0,0-2.9,1.054,6,6,0,0,0-1.664,2.487L0,137.7v37.912a5.592,5.592,0,0,0,1.889,2.733,12.141,12.141,0,0,0,1.278.685c.177.086.354.172.528.261H62.014a.809.809,0,0,1,.244-.144,4.664,4.664,0,0,0,3.5-4.9m-4.419-35.806V143.6l-.459-.066c-1.794-.258-4.4-2.862-4.641-4.644l-.063-.456Zm-56.957.76a1.38,1.38,0,0,1,.041-.3c.008-.037.017-.079.025-.125l.059-.331h5.06l-.051.447c-.2,1.773-2.776,4.344-4.668,4.663l-.468.079v-1.291c0-1.07,0-2.107,0-3.143m.049,35.676v-5.259l.5.127a7.28,7.28,0,0,1,4.6,4.658l.088.475Zm56.915-.01H56.2l.049-.446c.2-1.768,2.748-4.336,4.628-4.658l.469-.08Zm.077-10.988a1.073,1.073,0,0,1-.885,1.213,12.254,12.254,0,0,0-8.969,8.956,1.112,1.112,0,0,1-1.277.91q-6.951-.014-13.9-.008H28.957c-4.384,0-8.919,0-13.378.016h-.016a1.261,1.261,0,0,1-1.417-1.038,12.16,12.16,0,0,0-8.824-8.8,1.169,1.169,0,0,1-.994-1.3c.025-4.335.026-9.017,0-14.313a1.168,1.168,0,0,1,.964-1.32,12.25,12.25,0,0,0,8.9-8.93,1.083,1.083,0,0,1,1.189-.912h0c12.717.014,24.15.013,34.951,0h0a1.123,1.123,0,0,1,1.234.963,12.27,12.27,0,0,0,8.932,8.9,1.082,1.082,0,0,1,.915,1.19c-.016,4.348-.016,8.948,0,14.474" transform="translate(0 -98.12)" fill="#faa92a"/>
    <path id="Path_80" data-name="Path 80" d="M151.185,27.977a25.539,25.539,0,0,0-1.5-9.1c-4.016-10.7-11.714-16.956-22.88-18.584a25.6,25.6,0,0,0-17.981,3.945C100.366,9.665,95.938,17.561,95.668,27.7a2.306,2.306,0,0,0,.595,1.684,2.1,2.1,0,0,0,1.509.621,2.194,2.194,0,0,0,2.254-2.229q.029-.366.056-.734a29.892,29.892,0,0,1,.5-4.149,22.735,22.735,0,0,1,9.3-14.112A22.56,22.56,0,0,1,123.169,4.43a25.234,25.234,0,0,1,5.16.549,22.214,22.214,0,0,1,14.064,9.237A23.01,23.01,0,0,1,145.471,35.6a24.814,24.814,0,0,1-3.3,6.214,2.14,2.14,0,0,0,.481,3.178,2.171,2.171,0,0,0,3.136-.722,27.516,27.516,0,0,0,5.393-16.294" transform="translate(-70.06 0)" fill="#faa92a"/>
    <path id="Path_81" data-name="Path 81" d="M184.2,47.844a2.2,2.2,0,1,0,0-4.385c-.52,0-1.04,0-1.569,0h-1.141v-.4c0-.3,0-.581,0-.855,0-.583,0-1.124,0-1.665a2.167,2.167,0,0,0-2.17-2.2h-.014a2.157,2.157,0,0,0-2.2,2.231c-.007.658-.006,1.316,0,1.976l0,1.145-.6.3c-.259.131-.51.258-.758.392a7.33,7.33,0,0,0-3.589,8.045,7.415,7.415,0,0,0,6.847,5.647,2.236,2.236,0,0,0,2.477-1.971,2.281,2.281,0,0,0-2.217-2.453,4.211,4.211,0,0,1-2.147-1.041,2.553,2.553,0,0,1-.45-3.049,2.869,2.869,0,0,1,2.724-1.709c1.054-.02,2.123-.017,3.157-.013.548,0,1.1,0,1.646,0" transform="translate(-125.942 -28.077)" fill="#faa92a"/>
    <path id="Path_82" data-name="Path 82" d="M95.542,198.668a7.308,7.308,0,0,0,7.3,7.334h.007a7.3,7.3,0,1,0-.007-14.61h-.02a7.311,7.311,0,0,0-7.276,7.276m5.259-1.946a2.9,2.9,0,0,1,2.045-.911h0a2.885,2.885,0,0,1,.1,5.768c-.045,0-.09,0-.135,0a2.8,2.8,0,0,1-1.863-.767,2.965,2.965,0,0,1-.989-2.07,2.834,2.834,0,0,1,.84-2.025" transform="translate(-69.969 -140.163)" fill="#faa92a"/>
  </g>
</svg>
