<svg id="Group_41" data-name="Group 41" xmlns="http://www.w3.org/2000/svg" xmlns:xlink="http://www.w3.org/1999/xlink" width="88.255" height="56.531" viewBox="0 0 88.255 56.531">
  <defs>
    <clipPath id="clip-path">
      <rect id="Rectangle_307" data-name="Rectangle 307" width="88.255" height="56.531" fill="#faa92a"/>
    </clipPath>
  </defs>
  <g id="Group_40" data-name="Group 40" clip-path="url(#clip-path)">
    <path id="Path_83" data-name="Path 83" d="M12.9,124.948a12.934,12.934,0,1,1,.006,25.868A13.05,13.05,0,0,1,0,137.793a12.9,12.9,0,0,1,12.9-12.845m.02,22.035a9.151,9.151,0,0,0,.018-18.3,9.151,9.151,0,1,0-.018,18.3" transform="translate(0 -94.284)" fill="#faa92a"/>
    <path id="Path_84" data-name="Path 84" d="M41.108,160.429a5.532,5.532,0,1,1-5.63-5.514,5.558,5.558,0,0,1,5.63,5.514m-5.518-1.719a1.775,1.775,0,0,0-1.785,1.774,1.832,1.832,0,0,0,1.7,1.756,1.865,1.865,0,0,0,1.86-1.733,1.829,1.829,0,0,0-1.776-1.8" transform="translate(-22.671 -116.897)" fill="#faa92a"/>
    <path id="Path_85" data-name="Path 85" d="M140.023,124.948a12.934,12.934,0,1,1-12.9,12.845,12.9,12.9,0,0,1,12.9-12.845m.02,22.035a9.151,9.151,0,0,0,.018-18.3,9.151,9.151,0,1,0-.018,18.3" transform="translate(-95.924 -94.284)" fill="#faa92a"/>
    <path id="Path_86" data-name="Path 86" d="M168.229,160.429a5.532,5.532,0,1,1-5.63-5.514,5.558,5.558,0,0,1,5.63,5.514m-5.518-1.719a1.775,1.775,0,0,0-1.785,1.774,1.832,1.832,0,0,0,1.7,1.756,1.865,1.865,0,0,0,1.86-1.733,1.829,1.829,0,0,0-1.776-1.8" transform="translate(-118.595 -116.897)" fill="#faa92a"/>
    <path id="Path_87" data-name="Path 87" d="M267.144,124.948a12.934,12.934,0,1,1-12.9,12.845,12.9,12.9,0,0,1,12.9-12.845m.02,22.035a9.151,9.151,0,0,0,.018-18.3,9.151,9.151,0,1,0-.018,18.3" transform="translate(-191.848 -94.284)" fill="#faa92a"/>
    <path id="Path_88" data-name="Path 88" d="M295.35,160.429a5.532,5.532,0,1,1-5.63-5.514,5.558,5.558,0,0,1,5.63,5.514m-5.518-1.719a1.775,1.775,0,0,0-1.785,1.774,1.832,1.832,0,0,0,1.7,1.756,1.865,1.865,0,0,0,1.86-1.733,1.829,1.829,0,0,0-1.776-1.8" transform="translate(-214.519 -116.897)" fill="#faa92a"/>
    <path id="Path_89" data-name="Path 89" d="M83.658,0A13.036,13.036,0,0,1,96.616,12.962a12.93,12.93,0,1,1-25.86-.118A12.9,12.9,0,0,1,83.658,0m.02,22.035a9.151,9.151,0,0,0,.018-18.3,9.329,9.329,0,0,0-9.22,9.157,9.243,9.243,0,0,0,9.2,9.145" transform="translate(-53.391 0)" fill="#faa92a"/>
    <path id="Path_90" data-name="Path 90" d="M111.863,35.481a5.532,5.532,0,1,1-5.63-5.514,5.558,5.558,0,0,1,5.63,5.514m-5.518-1.719a1.775,1.775,0,0,0-1.785,1.774,1.832,1.832,0,0,0,1.7,1.756,1.865,1.865,0,0,0,1.86-1.733,1.829,1.829,0,0,0-1.776-1.8" transform="translate(-76.062 -22.612)" fill="#faa92a"/>
    <path id="Path_91" data-name="Path 91" d="M210.779,0a13.036,13.036,0,0,1,12.958,12.962,12.93,12.93,0,1,1-25.86-.118A12.9,12.9,0,0,1,210.779,0m.02,22.035a9.151,9.151,0,0,0,.018-18.3,9.329,9.329,0,0,0-9.22,9.157,9.243,9.243,0,0,0,9.2,9.145" transform="translate(-149.315 0)" fill="#faa92a"/>
    <path id="Path_92" data-name="Path 92" d="M238.984,35.481a5.532,5.532,0,1,1-5.63-5.514,5.558,5.558,0,0,1,5.63,5.514m-5.518-1.719a1.775,1.775,0,0,0-1.785,1.774,1.832,1.832,0,0,0,1.7,1.756,1.865,1.865,0,0,0,1.86-1.733,1.829,1.829,0,0,0-1.776-1.8" transform="translate(-171.986 -22.612)" fill="#faa92a"/>
  </g>
</svg>
