<svg xmlns="http://www.w3.org/2000/svg" width="16.803" height="16.803" viewBox="0 0 16.803 16.803">
  <path id="Icon_awesome-phone-alt" data-name="Icon awesome-phone-alt" d="M16.324,11.874,12.648,10.3a.788.788,0,0,0-.919.226L10.1,12.514A12.165,12.165,0,0,1,4.286,6.7L6.275,5.071A.786.786,0,0,0,6.5,4.152L4.926.476a.793.793,0,0,0-.9-.456L.61.808A.788.788,0,0,0,0,1.576,15.227,15.227,0,0,0,15.228,16.8a.788.788,0,0,0,.768-.61l.788-3.413a.8.8,0,0,0-.46-.906Z" transform="translate(0 0)" fill="#faa92a"/>
</svg>
