<svg xmlns="http://www.w3.org/2000/svg" width="151.203" height="71.899" viewBox="0 0 151.203 71.899">
  <g id="Group_29" data-name="Group 29" transform="translate(-290.898 -30.05)">
    <path id="Path_49" data-name="Path 49" d="M12.549,55.7v6.212H2.585V55.7H0V71.378H2.585V64.416h9.964v6.962h2.584V55.7Z" transform="translate(290.899 30.05)" fill="#244464"/>
    <path id="Path_50" data-name="Path 50" d="M32.288,63.6a5.681,5.681,0,0,0-1.6-.834,9.677,9.677,0,0,0-1.959-.438l-4.544-.625a3.779,3.779,0,0,1-1.73-.563,1.443,1.443,0,0,1-.522-1.23,2.061,2.061,0,0,1,.146-.75,1.574,1.574,0,0,1,.584-.688,3.81,3.81,0,0,1,1.209-.521,7.979,7.979,0,0,1,2.022-.209,5.851,5.851,0,0,1,3.606.834,3.469,3.469,0,0,1,1.1,2.668h2.668a9.564,9.564,0,0,0-.438-2.334,4.616,4.616,0,0,0-1.188-1.9,5.882,5.882,0,0,0-2.23-1.292,10.84,10.84,0,0,0-3.482-.48,9.637,9.637,0,0,0-3.23.459,6.206,6.206,0,0,0-2.043,1.146,3.818,3.818,0,0,0-1.084,1.543A4.669,4.669,0,0,0,19.26,60a3.828,3.828,0,0,0,.459,1.98,3.968,3.968,0,0,0,1.146,1.251,5.37,5.37,0,0,0,1.5.729,8.813,8.813,0,0,0,1.48.334l5.045.667a3.549,3.549,0,0,1,1.709.6,1.64,1.64,0,0,1,.542,1.355,2.468,2.468,0,0,1-.188.98,1.789,1.789,0,0,1-.688.771,4.009,4.009,0,0,1-1.4.521,11.394,11.394,0,0,1-2.272.188,10.009,10.009,0,0,1-2.9-.334,3.7,3.7,0,0,1-1.584-.875,2.651,2.651,0,0,1-.688-1.209,7.4,7.4,0,0,1-.208-1.376H18.635a7.1,7.1,0,0,0,.729,3.043,5.266,5.266,0,0,0,1.689,1.918,7,7,0,0,0,2.4,1.021,12.633,12.633,0,0,0,2.856.313q.834,0,2.1-.125a8.433,8.433,0,0,0,2.46-.625,5.529,5.529,0,0,0,2.042-1.48,4.017,4.017,0,0,0,.855-2.731,4.492,4.492,0,0,0-.4-1.98A3.649,3.649,0,0,0,32.288,63.6" transform="translate(290.899 30.05)" fill="#244464"/>
    <path id="Path_51" data-name="Path 51" d="M69.515,56.724a7.5,7.5,0,0,0-5.065-1.48,6.548,6.548,0,0,0-5.544,2.585,5.47,5.47,0,0,0-2.023-1.856,7.483,7.483,0,0,0-3.6-.729,8.256,8.256,0,0,0-2.669.438,5.985,5.985,0,0,0-2.251,1.355L48.316,55.7H45.648V71.419h2.668V62.206a4.262,4.262,0,0,1,1.293-3.335,4.965,4.965,0,0,1,3.46-1.167,4.26,4.26,0,0,1,3.148.938,3.5,3.5,0,0,1,.9,2.522V71.419h2.626v-9.5a4.11,4.11,0,0,1,1.147-3.106,5.044,5.044,0,0,1,3.606-1.1,3.8,3.8,0,0,1,3.105,1.1,4.071,4.071,0,0,1,.9,2.648v9.963H71.2V61a5.378,5.378,0,0,0-1.689-4.273" transform="translate(290.899 30.05)" fill="#244464"/>
    <path id="Path_52" data-name="Path 52" d="M85.878,57.787a8.209,8.209,0,0,0-2.751-1.855,10.35,10.35,0,0,0-7.421,0c-.146.061-.28.133-.42.2v3a5.865,5.865,0,0,1,1.441-.884,6.689,6.689,0,0,1,2.689-.5,6.843,6.843,0,0,1,2.71.5,5.536,5.536,0,0,1,1.918,1.314,5.368,5.368,0,0,1,1.125,1.876,6.39,6.39,0,0,1,.376,2.147,6.212,6.212,0,0,1-.376,2.126,5.408,5.408,0,0,1-1.125,1.855,5.52,5.52,0,0,1-1.918,1.313,6.825,6.825,0,0,1-2.71.5,6.672,6.672,0,0,1-2.689-.5,5.862,5.862,0,0,1-1.441-.883v3.023c.14.065.274.135.42.195a10.654,10.654,0,0,0,7.421,0A8.115,8.115,0,0,0,85.878,69.4a8.023,8.023,0,0,0,1.73-2.647,8.418,8.418,0,0,0,.6-3.168,8.328,8.328,0,0,0-2.334-5.8" transform="translate(290.899 30.05)" fill="#244464"/>
    <path id="Path_53" data-name="Path 53" d="M109.431,69.356a8.209,8.209,0,0,0,2.751,1.855,10.35,10.35,0,0,0,7.421,0c.146-.061.28-.133.42-.2v-3a5.865,5.865,0,0,1-1.441.884,6.689,6.689,0,0,1-2.689.5,6.843,6.843,0,0,1-2.71-.5,5.536,5.536,0,0,1-1.918-1.314,5.368,5.368,0,0,1-1.125-1.876,6.39,6.39,0,0,1-.376-2.147,6.212,6.212,0,0,1,.376-2.126,5.408,5.408,0,0,1,1.125-1.855,5.52,5.52,0,0,1,1.918-1.313,6.825,6.825,0,0,1,2.71-.5,6.672,6.672,0,0,1,2.689.5,5.862,5.862,0,0,1,1.441.883V56.127c-.14-.065-.274-.135-.42-.195a10.654,10.654,0,0,0-7.421,0,8.115,8.115,0,0,0-2.751,1.814,8.023,8.023,0,0,0-1.73,2.647,8.418,8.418,0,0,0-.6,3.168,8.328,8.328,0,0,0,2.334,5.8" transform="translate(290.899 30.05)" fill="#244464"/>
    <path id="Path_54" data-name="Path 54" d="M90.214,58.2h6.17V71.419h2.585V58.2H105.1v-2.46H90.214Z" transform="translate(290.899 30.05)" fill="#244464"/>
    <path id="Path_55" data-name="Path 55" d="M131.776,55.536a8.784,8.784,0,0,0-2.835.438,5.363,5.363,0,0,0-2.252,1.48V55.7h-2.584V71.42h2.584V63a5.885,5.885,0,0,1,.293-1.876,4.237,4.237,0,0,1,.875-1.521,4.359,4.359,0,0,1,1.459-1.043,5.047,5.047,0,0,1,2.085-.4,5.279,5.279,0,0,1,.9.063,7.208,7.208,0,0,1,1.188.4V55.869c-.473-.138-.813-.229-1.021-.27a3.488,3.488,0,0,0-.688-.063" transform="translate(290.899 30.05)" fill="#244464"/>
    <path id="Path_56" data-name="Path 56" d="M149.723,63.6a5.682,5.682,0,0,0-1.605-.834,9.671,9.671,0,0,0-1.96-.438l-4.543-.625a3.774,3.774,0,0,1-1.73-.563,1.443,1.443,0,0,1-.522-1.23,2.061,2.061,0,0,1,.146-.75,1.568,1.568,0,0,1,.584-.688,3.81,3.81,0,0,1,1.209-.521,7.979,7.979,0,0,1,2.022-.209,5.851,5.851,0,0,1,3.606.834,3.465,3.465,0,0,1,1.1,2.668H150.7a9.612,9.612,0,0,0-.438-2.334,4.626,4.626,0,0,0-1.188-1.9,5.887,5.887,0,0,0-2.231-1.292,10.829,10.829,0,0,0-3.481-.48,9.637,9.637,0,0,0-3.23.459,6.186,6.186,0,0,0-2.043,1.146,3.818,3.818,0,0,0-1.084,1.543A4.669,4.669,0,0,0,136.7,60a3.818,3.818,0,0,0,.459,1.98,3.968,3.968,0,0,0,1.146,1.251,5.37,5.37,0,0,0,1.5.729,8.813,8.813,0,0,0,1.48.334l5.044.667a3.541,3.541,0,0,1,1.709.6,1.638,1.638,0,0,1,.543,1.355,2.468,2.468,0,0,1-.188.98,1.8,1.8,0,0,1-.688.771,4.017,4.017,0,0,1-1.4.521,11.4,11.4,0,0,1-2.273.188,10.006,10.006,0,0,1-2.9-.334,3.7,3.7,0,0,1-1.584-.875,2.642,2.642,0,0,1-.688-1.209,7.487,7.487,0,0,1-.209-1.376H136.07a7.1,7.1,0,0,0,.729,3.043,5.266,5.266,0,0,0,1.689,1.918,7,7,0,0,0,2.4,1.021,12.627,12.627,0,0,0,2.856.313q.833,0,2.1-.125a8.435,8.435,0,0,0,2.459-.625,5.524,5.524,0,0,0,2.043-1.48,4.022,4.022,0,0,0,.855-2.731,4.492,4.492,0,0,0-.4-1.98,3.67,3.67,0,0,0-1.084-1.334" transform="translate(290.899 30.05)" fill="#244464"/>
    <path id="Path_57" data-name="Path 57" d="M48.483,17.982H30.032a4.867,4.867,0,0,1-4.866-4.866V0H16.839V14.191a12.084,12.084,0,0,0,2.989,7.955A12.083,12.083,0,0,0,16.839,30.1V44.289h8.327V31.176a4.867,4.867,0,0,1,4.866-4.867H134.365V17.982Z" transform="translate(290.899 30.05)" fill="#faa92a"/>
    <path id="Path_58" data-name="Path 58" d="M96.058,16.655v-3.5a4.866,4.866,0,0,1,4.866-4.827h33.44V0H99.849A12.112,12.112,0,0,0,87.731,12.067v4.588Z" transform="translate(290.899 30.05)" fill="#244464"/>
    <path id="Path_59" data-name="Path 59" d="M126.037,27.634v3.5a4.866,4.866,0,0,1-4.866,4.827H87.731v8.328h34.515a12.112,12.112,0,0,0,12.118-12.067V27.634Z" transform="translate(290.899 30.05)" fill="#244464"/>
    <path id="Path_60" data-name="Path 60" d="M68.521,0V16.655h8.327V0Z" transform="translate(290.899 30.05)" fill="#faa92a"/>
    <path id="Path_61" data-name="Path 61" d="M68.469,27.634V44.289H76.8V27.634Z" transform="translate(290.899 30.05)" fill="#faa92a"/>
  </g>
</svg>
